<?xml version="1.0" encoding="utf-8"?>
<!-- Generator: Adobe Illustrator 16.0.0, SVG Export Plug-In . SVG Version: 6.00 Build 0)  -->
<!DOCTYPE svg PUBLIC "-//W3C//DTD SVG 1.1//EN" "http://www.w3.org/Graphics/SVG/1.1/DTD/svg11.dtd">
<svg version="1.1" id="Layer_1" xmlns="http://www.w3.org/2000/svg" xmlns:xlink="http://www.w3.org/1999/xlink" x="0px" y="0px"
	 width="500px" height="500px" viewBox="0 0 500 500" enable-background="new 0 0 500 500" xml:space="preserve">
<g>
	<text transform="matrix(1 0 0 1 231.0947 256.4014)" fill="#0071BC" font-family="'MyriadPro-Bold'" font-size="151.5421">v</text>
	<text transform="matrix(1 0 0 1 175.312 256.4014)" fill="#0071BC" font-family="'MyriadPro-Bold'" font-size="151.5421">r</text>
	<text transform="matrix(1 0 0 1 104.6221 255.4014)" fill="#0071BC" font-family="'MyriadPro-Bold'" font-size="151.5421">e</text>
	<text transform="matrix(1 0 0 1 29.8755 255.4014)" fill="#0071BC" font-family="'MyriadPro-Bold'" font-size="151.5421">S</text>
	<rect x="280.129" y="151.875" fill="#FFFFFF" width="37.858" height="105.002"/>
	<path fill="#0071BC" d="M317.457,148.328c-38.393,21.991-54.278,68.114-39.544,108.301c7.646-0.404,15.146-0.328,22.72,1.018
		c-20.541-38.994-6.675-87.545,31.875-109.628c12.72-7.286,26.568-10.776,40.25-10.866
		C354.251,134.879,334.883,138.348,317.457,148.328z"/>
	
		<linearGradient id="SVGID_1_" gradientUnits="userSpaceOnUse" x1="-2168.8906" y1="-1633.1211" x2="-2167.1094" y2="-1633.1211" gradientTransform="matrix(0.1523 0 0 -0.1523 694.5212 8.1306)">
		<stop  offset="0" style="stop-color:#ED1C24"/>
		<stop  offset="1" style="stop-color:#C1272D"/>
	</linearGradient>
	<polygon fill="url(#SVGID_1_)" points="364.471,256.918 364.335,256.793 364.199,256.918 	"/>
	
		<linearGradient id="SVGID_2_" gradientUnits="userSpaceOnUse" x1="-2598.4888" y1="-1559.8818" x2="-2596.7056" y2="-1559.8818" gradientTransform="matrix(49.0566 0 0 -49.0566 127856.5312 -76302.9844)">
		<stop  offset="0" style="stop-color:#0071BC"/>
		<stop  offset="1" style="stop-color:#2E3192"/>
	</linearGradient>
	<path fill="url(#SVGID_2_)" d="M447.624,234.109c-2.981-2.761-5.449-5.05-7.409-6.867c-1.965-1.818-3.602-3.327-4.91-4.524
		c-1.308-1.2-2.361-2.125-3.16-2.78c-0.801-0.655-1.525-1.199-2.18-1.634c0.654-0.509,1.398-1.11,2.235-1.801
		c0.833-0.689,1.87-1.561,3.104-2.616c1.234-1.053,2.729-2.362,4.471-3.924c1.744-1.563,3.888-3.505,6.432-5.833l23.002-21.039
		h-29.215l-23.438,22.673l-23.222-22.673h-5.458V207.3c1.347,1.256,2.553,2.366,3.606,3.316c1.889,1.711,3.449,3.127,4.687,4.253
		c1.233,1.128,2.252,2,3.052,2.615c0.8,0.619,1.527,1.184,2.181,1.691c-0.653,0.508-1.4,1.09-2.233,1.745
		c-0.836,0.654-1.872,1.525-3.108,2.616c-1.235,1.09-2.799,2.491-4.688,4.198c-1.031,0.932-2.199,1.995-3.495,3.18v12.57
		c0,2.817-0.428,5.331-1.273,7.471c-0.787,1.982-1.834,3.681-3.111,5.066h5.155l25.617-24.092l24.855,24.092h31.832L447.624,234.109
		z"/>
	
		<linearGradient id="SVGID_3_" gradientUnits="userSpaceOnUse" x1="-2599.2124" y1="-1559.8848" x2="-2597.4502" y2="-1559.8848" gradientTransform="matrix(47.6025 0 0 -47.6025 124027.7891 -74034.6484)">
		<stop  offset="0" style="stop-color:#0071BC"/>
		<stop  offset="1" style="stop-color:#2E3192"/>
	</linearGradient>
	<path fill="url(#SVGID_3_)" d="M308.13,256.057h8.669v-42.653l44.5,39.942c1.735,1.665,3.309,2.728,4.719,3.199
		c1.414,0.471,2.838,0.706,4.287,0.706c1.592,0,3.148-0.256,4.666-0.759c1.523-0.506,2.844-1.318,3.963-2.442
		c1.123-1.121,2.026-2.551,2.715-4.288c0.687-1.735,1.03-3.799,1.03-6.188v-60.126h-20.512v42.654l-44.501-39.941
		c-1.809-1.666-3.421-2.732-4.83-3.202c-1.365-0.456-2.71-0.685-4.038-0.699c-6.371,11.045-10.019,23.85-10.019,37.493
		C298.779,232.909,302.174,245.284,308.13,256.057z"/>
	
		<rect x="286.719" y="207.093" transform="matrix(0.9745 0.2244 -0.2244 0.9745 59.494 -59.0418)" fill="#FFFFFF" width="5.619" height="50.316"/>
	
		<rect x="295.403" y="227.625" transform="matrix(0.9437 -0.3309 0.3309 0.9437 -63.6811 112.3771)" fill="#FFFFFF" width="5.619" height="31.191"/>
	<polygon fill="#FFFFFF" points="306.028,256.316 305.682,263.234 182.414,262.955 182.775,256.042 	"/>
</g>
</svg>
